<svg xmlns="http://www.w3.org/2000/svg" viewBox="0 0 512 512">
  <defs>
    <linearGradient id="bg" x1="0" y1="0" x2="1" y2="1"><stop offset="0" stop-color="#13213d"/><stop offset="1" stop-color="#060c18"/></linearGradient>
    <linearGradient id="t" x1="0" y1="0" x2="1" y2="1"><stop offset="0" stop-color="#8ff5e8"/><stop offset=".55" stop-color="#5ab8ff"/><stop offset="1" stop-color="#7f8cff"/></linearGradient>
    <radialGradient id="g" cx=".3" cy=".2" r=".9"><stop offset="0" stop-color="#5ee6d6" stop-opacity=".28"/><stop offset="1" stop-color="#5ee6d6" stop-opacity="0"/></radialGradient>
  </defs>
  <rect width="512" height="512" rx="112" fill="url(#bg)"/>
  <rect width="512" height="512" rx="112" fill="url(#g)"/>
  <path transform="translate(96 92) scale(13.4)" d="M7 3c2.2 0 3.3 1 5 1s2.8-1 5-1c3 0 4 3 3.2 7-.6 3.2-1.6 5-2.3 9-.5 2.6-2.4 3.1-3.1.4l-1.3-4.8c-.5-1.6-2.5-1.6-3 0L9.2 19.4c-.7 2.7-2.6 2.2-3.1-.4-.7-4-1.7-5.8-2.3-9C3 6 4 3 7 3z" fill="url(#t)"/>
</svg>
